<svg width="0" height="0" class="hidden">
  <symbol xmlns="http://www.w3.org/2000/svg" viewBox="0 0 640 640" id="person-hiking-solid-full">
    <path d="M288 32C318.9 32 344 57.1 344 88C344 118.9 318.9 144 288 144C257.1 144 232 118.9 232 88C232 57.1 257.1 32 288 32zM224 237.6C224 203.6 251.6 176 285.6 176C305.9 176 325.3 184.1 339.6 198.4L387.8 246.6C393.8 252.6 401.9 256 410.4 256L447.9 256C453.7 256 459.2 257.6 463.9 260.3L463.9 184C463.9 170.7 474.6 160 487.9 160C501.2 160 511.9 170.7 511.9 184L511.9 584C511.9 597.3 501.2 608 487.9 608C474.6 608 463.9 597.3 463.9 584L463.9 315.7C459.2 318.4 453.7 320 447.9 320L410.4 320C384.9 320 360.5 309.9 342.5 291.9L335.9 285.3L335.9 394.5L370.4 424.1C388.1 439.3 399.7 460.3 403 483.4L415.6 571.5C418.1 589 405.9 605.2 388.4 607.7C370.9 610.2 354.7 598 352.2 580.5L339.6 492.4C338.5 484.7 334.6 477.7 328.7 472.6L257.3 411.4C236 393.2 223.8 366.5 223.8 338.5L223.8 237.5zM219.2 441.3C221.5 443.6 223.9 445.7 226.3 447.8L271.2 486.3C267.6 494.7 262.7 502.6 256.8 509.7L184.6 596.5C173.3 610.1 153.1 611.9 139.5 600.6C125.9 589.3 124.1 569.1 135.4 555.5L207.7 468.8C210.3 465.7 212.2 462.2 213.5 458.4L219.2 441.3zM96 224C96 188.7 124.7 160 160 160C177.7 160 192 174.3 192 192L192 320C192 337.7 177.7 352 160 352L128 352C110.3 352 96 337.7 96 320L96 224z"></path>
  </symbol>
  <symbol xmlns="http://www.w3.org/2000/svg" viewBox="0 0 640 640" id="pagelines-brands-solid-full">
    <path d="M512.1 376.7C457 513.4 325 430.7 325 430.7C284.5 512.5 217.6 565.1 140.4 565.4C124.3 565.4 123.8 541 140.4 541C204.8 540.7 260.9 498.3 297.6 430.9C256.5 446.8 179 458.8 136 348.7C245 303.8 295.1 359.9 314.3 394.2C324.2 369.8 331.3 343.3 335.9 314.5C335.9 314.5 196.2 336.4 186.4 216.4C305.5 168.5 339 293.1 339 293.1C340.6 276.4 342.3 240.5 342.3 239.7C342.3 239.7 236 166 304.2 74.5C428.8 117.5 365.6 236.9 365.6 236.9C366.1 238.5 366.1 260.7 365.6 270.3C365.6 270.3 410.8 181.3 502 212.8C497.8 346.8 360.1 319.2 360.1 319.2C355.7 346.6 348.9 372.6 340.1 396.7C340.1 396.7 423.1 304.9 512.1 376.7z"></path>
  </symbol>
  <symbol xmlns="http://www.w3.org/2000/svg" viewBox="0 0 640 640" id="cookie-solid-full">
    <path d="M311.2 81C289.1 77.9 266.6 81.9 246.8 92.4L172.8 131.9C153.1 142.4 137.2 158.9 127.4 179L90.7 254.6C80.9 274.7 77.7 297.5 81.6 319.5L96.1 402.3C100 424.4 110.7 444.6 126.8 460.2L187.1 518.6C203.2 534.2 223.7 544.2 245.8 547.3L328.8 559C350.9 562.1 373.4 558.1 393.2 547.6L467.2 508.1C486.9 497.6 502.8 481.1 512.6 460.9L549.3 385.4C559.1 365.3 562.3 342.5 558.4 320.5L543.8 237.7C539.9 215.6 529.2 195.4 513.1 179.8L452.9 121.5C436.8 105.9 416.3 95.9 394.2 92.8L311.2 81zM272 208C289.7 208 304 222.3 304 240C304 257.7 289.7 272 272 272C254.3 272 240 257.7 240 240C240 222.3 254.3 208 272 208zM208 400C208 382.3 222.3 368 240 368C257.7 368 272 382.3 272 400C272 417.7 257.7 432 240 432C222.3 432 208 417.7 208 400zM432 336C449.7 336 464 350.3 464 368C464 385.7 449.7 400 432 400C414.3 400 400 385.7 400 368C400 350.3 414.3 336 432 336z"></path>
  </symbol>
  <symbol xmlns="http://www.w3.org/2000/svg" viewBox="0 0 640 640" id="chevron-down-solid-full">
    <path d="M297.4 470.6C309.9 483.1 330.2 483.1 342.7 470.6L534.7 278.6C547.2 266.1 547.2 245.8 534.7 233.3C522.2 220.8 501.9 220.8 489.4 233.3L320 402.7L150.6 233.4C138.1 220.9 117.8 220.9 105.3 233.4C92.8 245.9 92.8 266.2 105.3 278.7L297.3 470.7z"></path>
  </symbol>
  <symbol xmlns="http://www.w3.org/2000/svg" viewBox="0 0 640 640" id="bars-solid-full">
    <path d="M96 160C96 142.3 110.3 128 128 128L512 128C529.7 128 544 142.3 544 160C544 177.7 529.7 192 512 192L128 192C110.3 192 96 177.7 96 160zM96 320C96 302.3 110.3 288 128 288L512 288C529.7 288 544 302.3 544 320C544 337.7 529.7 352 512 352L128 352C110.3 352 96 337.7 96 320zM544 480C544 497.7 529.7 512 512 512L128 512C110.3 512 96 497.7 96 480C96 462.3 110.3 448 128 448L512 448C529.7 448 544 462.3 544 480z"></path>
  </symbol>
  <symbol xmlns="http://www.w3.org/2000/svg" viewBox="0 0 640 640" id="mountain-sun-solid-full">
    <path d="M288.5 64C303.2 64 316.7 72.1 323.7 85L539.7 485C546.4 497.4 546.1 512.4 538.9 524.5C531.7 536.6 518.6 544 504.6 544L72.6 544C58.5 544 45.5 536.6 38.3 524.5C31.1 512.4 30.8 497.4 37.5 485L253.5 85L256.4 80.4C263.7 70.2 275.6 64 288.5 64zM202.4 313.9L229.2 340.7C235.4 346.9 245.6 346.9 251.8 340.7L295.1 297.4C301.1 291.4 309.2 288 317.7 288L360.5 288L288.4 154.5L202.3 313.9zM528.5 224C484.3 224 448.5 188.2 448.5 144C448.5 99.8 484.3 64 528.5 64C572.7 64 608.5 99.8 608.5 144C608.5 188.2 572.7 224 528.5 224z"></path>
  </symbol>
</svg>